<?xml version="1.0" encoding="UTF-8" standalone="no"?>
<!-- Uploaded to: SVG Repo, www.svgrepo.com, Generator: SVG Repo Mixer Tools -->

<svg
   fill="#000000"
   version="1.1"
   id="Capa_1"
   width="800px"
   height="800px"
   viewBox="0 0 489.394 489.394"
   xml:space="preserve"
   sodipodi:docname="return-white.svg"
   inkscape:version="1.3.2 (1:1.3.2+202311252150+091e20ef0f)"
   xmlns:inkscape="http://www.inkscape.org/namespaces/inkscape"
   xmlns:sodipodi="http://sodipodi.sourceforge.net/DTD/sodipodi-0.dtd"
   xmlns="http://www.w3.org/2000/svg"
   xmlns:svg="http://www.w3.org/2000/svg"><defs
   id="defs1" /><sodipodi:namedview
   id="namedview1"
   pagecolor="#ffffff"
   bordercolor="#666666"
   borderopacity="1.0"
   inkscape:showpageshadow="2"
   inkscape:pageopacity="0.0"
   inkscape:pagecheckerboard="0"
   inkscape:deskcolor="#d1d1d1"
   inkscape:zoom="0.945"
   inkscape:cx="400"
   inkscape:cy="399.4709"
   inkscape:window-width="1920"
   inkscape:window-height="1003"
   inkscape:window-x="0"
   inkscape:window-y="0"
   inkscape:window-maximized="1"
   inkscape:current-layer="Capa_1" />
<g
   id="g1"
   style="fill:#f2f2f2;fill-opacity:1"
   inkscape:export-filename="g1.png"
   inkscape:export-xdpi="66.75"
   inkscape:export-ydpi="66.75">
	<path
   d="M375.789,92.867H166.864l17.507-42.795c3.724-9.132,1-19.574-6.691-25.744c-7.701-6.166-18.538-6.508-26.639-0.879   L9.574,121.71c-6.197,4.304-9.795,11.457-9.563,18.995c0.231,7.533,4.261,14.446,10.71,18.359l147.925,89.823   c8.417,5.108,19.18,4.093,26.481-2.499c7.312-6.591,9.427-17.312,5.219-26.202l-19.443-41.132h204.886   c15.119,0,27.418,12.536,27.418,27.654v149.852c0,15.118-12.299,27.19-27.418,27.19h-226.74c-20.226,0-36.623,16.396-36.623,36.622   v12.942c0,20.228,16.397,36.624,36.623,36.624h226.74c62.642,0,113.604-50.732,113.604-113.379V206.709   C489.395,144.062,438.431,92.867,375.789,92.867z"
   id="path1"
   style="fill:#f2f2f2;fill-opacity:1" />
</g>
</svg>
